<svg xmlns="http://www.w3.org/2000/svg" viewBox="0 0 1200 750" role="img" aria-labelledby="title desc">
  <title id="title">Hotel Linen Ops dashboard preview</title>
  <desc id="desc">Abstract map-based operations dashboard cover with floor plan, station markers, and side panel</desc>
  <rect width="1200" height="750" fill="#f5f5f5"/>
  <rect x="0" y="0" width="1200" height="56" fill="#ffffff"/>
  <rect x="0" y="55" width="1200" height="2" fill="#e5e5e5"/>
  <text x="24" y="36" font-family="system-ui, sans-serif" font-size="16" font-weight="700" fill="#111">Hotel Linen Ops</text>
  <rect x="120" y="20" width="76" height="28" rx="6" fill="#eef2ff"/>
  <text x="158" y="38" text-anchor="middle" font-family="system-ui, sans-serif" font-size="12" font-weight="600" fill="#4f46e5">Dashboard</text>
  <rect x="206" y="20" width="68" height="28" rx="6" fill="#ffffff"/>
  <text x="240" y="38" text-anchor="middle" font-family="system-ui, sans-serif" font-size="12" font-weight="500" fill="#6b7280">Library</text>
  <rect x="284" y="20" width="64" height="28" rx="6" fill="#ffffff"/>
  <text x="316" y="38" text-anchor="middle" font-family="system-ui, sans-serif" font-size="12" font-weight="500" fill="#6b7280">Tasks</text>
  <rect x="358" y="20" width="92" height="28" rx="6" fill="#ffffff"/>
  <text x="404" y="38" text-anchor="middle" font-family="system-ui, sans-serif" font-size="12" font-weight="500" fill="#6b7280">Automation</text>
  <rect x="460" y="20" width="56" height="28" rx="6" fill="#ffffff"/>
  <text x="488" y="38" text-anchor="middle" font-family="system-ui, sans-serif" font-size="12" font-weight="500" fill="#6b7280">Lift</text>
  <rect x="1080" y="12" width="32" height="32" rx="6" fill="#ffffff" stroke="#d1d5db"/>
  <rect x="1122" y="12" width="32" height="32" rx="6" fill="#ffffff" stroke="#d1d5db"/>
  <rect x="24" y="80" width="220" height="220" rx="8" fill="rgba(250, 204, 21, 0.18)" stroke="rgba(161, 98, 7, 0.85)" stroke-width="2" stroke-dasharray="6 4"/>
  <text x="34" y="100" font-family="system-ui, sans-serif" font-size="11" font-weight="800" fill="#78350f" background-color="#fde68a" padding="2px 6px">Loading Bay</text>
  <rect x="262" y="80" width="140" height="220" rx="8" fill="rgba(34, 197, 94, 0.16)" stroke="rgba(21, 128, 61, 0.85)" stroke-width="2" stroke-dasharray="6 4"/>
  <text x="272" y="100" font-family="system-ui, sans-serif" font-size="11" font-weight="800" fill="#14532d">Clean Linen</text>
  <rect x="420" y="60" width="260" height="540" rx="8" fill="rgba(59, 130, 246, 0.14)" stroke="rgba(30, 64, 175, 0.85)" stroke-width="2" stroke-dasharray="6 4"/>
  <text x="430" y="80" font-family="system-ui, sans-serif" font-size="11" font-weight="800" fill="#1e3a8a">Parking Area</text>
  <rect x="700" y="320" width="150" height="200" rx="8" fill="rgba(168, 85, 247, 0.14)" stroke="rgba(107, 33, 168, 0.85)" stroke-width="2" stroke-dasharray="6 4"/>
  <text x="710" y="340" font-family="system-ui, sans-serif" font-size="11" font-weight="800" fill="#581c87">Dirty Linen</text>
  <rect x="870" y="60" width="130" height="240" rx="8" fill="rgba(255, 159, 64, 0.14)" stroke="rgba(230, 92, 0, 0.85)" stroke-width="2" stroke-dasharray="6 4"/>
  <text x="880" y="80" font-family="system-ui, sans-serif" font-size="11" font-weight="800" fill="#e65100">Elevator</text>
  <g fill="#3b82f6" stroke="#1e3a8a" stroke-width="1.5">
    <rect x="60" y="140" width="36" height="36" rx="4"/>
    <rect x="110" y="140" width="36" height="36" rx="4"/>
    <rect x="160" y="140" width="36" height="36" rx="4"/>
    <rect x="60" y="200" width="36" height="36" rx="4"/>
    <rect x="160" y="200" width="36" height="36" rx="4"/>
  </g>
  <text x="78" y="163" text-anchor="middle" font-family="system-ui, sans-serif" font-size="10" font-weight="700" fill="#ffffff">B1</text>
  <text x="128" y="163" text-anchor="middle" font-family="system-ui, sans-serif" font-size="10" font-weight="700" fill="#ffffff">B2</text>
  <text x="178" y="163" text-anchor="middle" font-family="system-ui, sans-serif" font-size="10" font-weight="700" fill="#ffffff">B3</text>
  <text x="78" y="223" text-anchor="middle" font-family="system-ui, sans-serif" font-size="10" font-weight="700" fill="#ffffff">B5</text>
  <text x="178" y="223" text-anchor="middle" font-family="system-ui, sans-serif" font-size="10" font-weight="700" fill="#ffffff">B4</text>
  <g fill="#3b82f6" stroke="#1e3a8a" stroke-width="1.5">
    <rect x="450" y="120" width="36" height="36" rx="4"/>
    <rect x="510" y="120" width="36" height="36" rx="4"/>
    <rect x="450" y="200" width="36" height="36" rx="4"/>
    <rect x="510" y="200" width="36" height="36" rx="4"/>
    <rect x="450" y="340" width="36" height="36" rx="4"/>
    <rect x="510" y="340" width="36" height="36" rx="4"/>
    <rect x="600" y="340" width="36" height="36" rx="4"/>
  </g>
  <g fill="#f97316" stroke="#9a3412" stroke-width="1.5">
    <rect x="600" y="120" width="40" height="40" rx="4"/>
  </g>
  <text x="620" y="145" text-anchor="middle" font-family="system-ui, sans-serif" font-size="9" font-weight="700" fill="#ffffff">CP1</text>
  <text x="510" y="143" text-anchor="middle" font-family="system-ui, sans-serif" font-size="10" font-weight="700" fill="#ffffff">B8</text>
  <text x="510" y="223" text-anchor="middle" font-family="system-ui, sans-serif" font-size="10" font-weight="700" fill="#ffffff">B12</text>
  <text x="510" y="363" text-anchor="middle" font-family="system-ui, sans-serif" font-size="10" font-weight="700" fill="#ffffff">B15</text>
  <g fill="#a855f7" stroke="#581c87" stroke-width="1.5">
    <rect x="730" y="420" width="36" height="36" rx="4"/>
    <rect x="780" y="420" width="36" height="36" rx="4"/>
  </g>
  <text x="748" y="443" text-anchor="middle" font-family="system-ui, sans-serif" font-size="10" font-weight="700" fill="#ffffff">B19</text>
  <text x="798" y="443" text-anchor="middle" font-family="system-ui, sans-serif" font-size="10" font-weight="700" fill="#ffffff">B20</text>
  <g fill="#ff9f40" stroke="#9a3412" stroke-width="1.5">
    <rect x="900" y="160" width="50" height="40" rx="4"/>
    <rect x="900" y="220" width="50" height="40" rx="4"/>
  </g>
  <text x="925" y="183" text-anchor="middle" font-family="system-ui, sans-serif" font-size="9" font-weight="700" fill="#ffffff">Elevator</text>
  <text x="925" y="243" text-anchor="middle" font-family="system-ui, sans-serif" font-size="9" font-weight="700" fill="#ffffff">LM22</text>
  <g fill="#a16207" stroke="#78350f" stroke-width="1.5">
    <rect x="100" y="245" width="40" height="30" rx="4"/>
    <rect x="100" y="275" width="40" height="30" rx="4"/>
  </g>
  <text x="120" y="264" text-anchor="middle" font-family="system-ui, sans-serif" font-size="8" font-weight="700" fill="#ffffff">Dispatch</text>
  <text x="120" y="294" text-anchor="middle" font-family="system-ui, sans-serif" font-size="8" font-weight="700" fill="#ffffff">Dispatch</text>
  <rect x="1020" y="80" width="170" height="500" rx="8" fill="#ffffff" stroke="#e5e7eb" stroke-width="1.5"/>
  <rect x="1020" y="80" width="170" height="40" fill="#fafafa"/>
  <text x="1036" y="105" font-family="system-ui, sans-serif" font-size="13" font-weight="700" fill="#111">Station Detail</text>
  <text x="1036" y="140" font-family="system-ui, sans-serif" font-size="10" font-weight="600" fill="#9ca3af" letter-spacing="0.05em">STATION TYPE</text>
  <text x="1036" y="158" font-family="system-ui, sans-serif" font-size="12" font-weight="600" fill="#111">Elevator (LM23)</text>
  <text x="1036" y="185" font-family="system-ui, sans-serif" font-size="10" font-weight="600" fill="#9ca3af" letter-spacing="0.05em">CALL LIFT</text>
  <rect x="1036" y="195" width="138" height="28" rx="4" fill="#ffffff" stroke="#d1d5db"/>
  <text x="1046" y="213" font-family="system-ui, sans-serif" font-size="12" font-weight="500" fill="#111">Floor 3</text>
  <text x="1160" y="213" text-anchor="end" font-family="system-ui, sans-serif" font-size="10" fill="#6b7280">▾</text>
  <rect x="1036" y="232" width="138" height="28" rx="4" fill="#4f46e5"/>
  <text x="1105" y="250" text-anchor="middle" font-family="system-ui, sans-serif" font-size="12" font-weight="600" fill="#ffffff">Call Lift</text>
  <text x="1036" y="295" font-family="system-ui, sans-serif" font-size="11" font-weight="600" fill="#15803d">Lift called to Floor 3</text>
  <rect x="24" y="660" width="280" height="32" rx="6" fill="#ffffff" stroke="#e5e7eb"/>
  <circle cx="40" cy="676" r="6" fill="#3b82f6"/>
  <text x="56" y="680" font-family="system-ui, sans-serif" font-size="11" fill="#111">Parking</text>
  <circle cx="120" cy="676" r="6" fill="#22c55e"/>
  <text x="136" y="680" font-family="system-ui, sans-serif" font-size="11" fill="#111">Storage</text>
  <circle cx="200" cy="676" r="6" fill="#ff9f40"/>
  <text x="216" y="680" font-family="system-ui, sans-serif" font-size="11" fill="#111">Elevator</text>
</svg>
